<svg width="20" height="34" viewBox="0 0 20 34" fill="none" xmlns="http://www.w3.org/2000/svg">
<path fill-rule="evenodd" clip-rule="evenodd" d="M17.7305 0.13596L18.0945 0.275218L18.8717 1.04606C19.2992 1.47001 19.7196 1.95143 19.8061 2.11587L19.9631 2.41485L19.9649 2.94637L19.9667 3.47789L19.8401 3.74365C19.7543 3.9239 17.6192 6.09968 13.2066 10.5041L6.69971 16.9988L13.2138 23.4931L19.728 29.9875L19.8625 30.2864C19.9527 30.4868 19.9975 30.7298 19.9985 31.0233L20 31.4612L19.7986 31.8628L19.5972 32.2645L18.8406 32.9949L18.084 33.7252L17.7061 33.8662C17.2279 34.0444 16.8413 34.0446 16.3523 33.8667L15.9664 33.7263L8.15234 25.9437L0.338289 18.1611L0.169146 17.7957L0 17.4303V16.9984V16.5666L0.16901 16.2012L0.338089 15.8357L8.15221 8.05309L15.9664 0.270368L16.3523 0.130113C16.8345 -0.0452219 17.2616 -0.043428 17.7305 0.13596Z" fill="white"/>
</svg>
