<svg width="20" height="34" viewBox="0 0 20 34" fill="none" xmlns="http://www.w3.org/2000/svg">
<path fill-rule="evenodd" clip-rule="evenodd" d="M2.26948 0.13596L1.90553 0.275218L1.12827 1.04606C0.70078 1.47001 0.280352 1.95143 0.193946 2.11587L0.0369359 2.41485L0.0351357 2.94637L0.0333356 3.47789L0.159944 3.74365C0.24575 3.9239 2.38076 6.09968 6.79339 10.5041L13.3003 16.9988L6.78619 23.4931L0.272018 29.9875L0.137476 30.2864C0.0472696 30.4868 0.00246704 30.7298 0.00146698 31.0233L0 31.4612L0.201414 31.8628L0.402827 32.2645L1.15941 32.9949L1.91599 33.7252L2.29389 33.8662C2.77205 34.0444 3.15874 34.0446 3.64771 33.8667L4.0336 33.7263L11.8477 25.9437L19.6617 18.1611L19.8309 17.7957L20 17.4303V16.9984V16.5666L19.831 16.2012L19.6619 15.8357L11.8478 8.05309L4.0336 0.270368L3.64771 0.130113C3.16554 -0.0452219 2.73838 -0.043428 2.26948 0.13596Z" fill="white"/>
</svg>
