<svg width="2848" height="4544" viewBox="0 0 2848 4544" fill="none" xmlns="http://www.w3.org/2000/svg">
<g clip-path="url(#clip0_1054_900)">
<path d="M726.222 4540.74C629.34 4551.73 532.221 4533.22 468.673 4513.11C446.618 4506.34 428.398 4499.79 414.436 4494.89C360.499 4474.13 357.002 4466.4 287.878 4423.74C220.271 4378.16 185.172 4341.68 141.951 4285.55C91.3694 4233.33 4.95484 4030.89 4.37459 3950.04C-6.407 3871.58 4.61738 3781.2 17.1617 3728.92C20.9189 3712.43 24.3781 3699.84 27.1988 3690.04C28.3917 3685.91 28.9707 3684 28.9722 3683.98C28.9694 3684 28.0779 3686.96 26.5865 3692.28C19.3755 3717.97 10.0831 3757.2 5.90486 3804.26C1.99979 3891.82 -2.5478 3902.89 21.482 4018.96C53.1767 4132.78 86.733 4199.02 175.577 4304.71C271.166 4401.17 302.011 4422.33 476.019 4488.34C478.372 4489.1 480.751 4489.86 483.157 4490.61C670.752 4536.05 700.824 4520.57 879.256 4463.88C1062.48 4401.75 1224.14 4204.8 1255.49 4093.02C1260.27 4079.84 1264.72 4066.25 1268.92 4051.71C1287.41 3989.48 1297.46 3914.08 1293.18 3834.29C1290.34 3781.31 1246.18 3745.11 1194.4 3733.54C1168.48 3727.74 1141.56 3718.46 1112.08 3701.61C1044.04 3657.21 1038.27 3643.97 977.121 3577.04C933.015 3524.99 907.248 3460.78 894.614 3416.13C890.1 3400.7 886.851 3387.61 884.112 3377.65C874.614 3338.41 880.527 3333.02 878.21 3276.69C878.21 3271.3 874.957 3266.4 869.905 3264.5C860.801 3261.08 851.451 3257.8 841.876 3254.69C675.855 3193.01 452.835 3236.91 360.563 3289.68C254.57 3346.83 230.15 3367.39 152.783 3454.01C109.453 3505.06 61.2323 3585.33 36.7222 3659.76C24.671 3697.25 27.0794 3688.55 39.525 3651.06C58.5038 3596.22 81.512 3554.27 96.3394 3528.39C126.939 3477.2 140.47 3454.67 193.547 3400.67C243.911 3352.9 271.847 3329.97 305.006 3308.08C311.028 3304.1 317.562 3300.96 323.908 3297.52C354.604 3280.89 364.74 3256 565.745 3210.15C686.243 3190.86 780.327 3206.38 850.587 3225.32C865.835 3229.54 881.468 3219.22 884.48 3203.68C888.607 3182.4 894.783 3162.37 903.042 3139.42C906.93 3123.1 895.346 3105.48 878.604 3104.34C859.752 3103.06 840.007 3099.72 806.931 3096.78C728.718 3085.39 660.712 3086.23 573.374 3037.1C490.057 2983.55 481.708 2968.76 406.943 2886.59C353.048 2822.79 320.8 2744.48 305.153 2689.72C299.567 2670.8 295.592 2654.73 292.356 2642.5C281.171 2594.31 286.627 2587.94 284.035 2518.68C284.263 2449.06 293.938 2406.85 313.859 2349.8C327.598 2289.36 430.614 2132.86 487.572 2094.22C538.103 2049.51 607.601 2015.12 650.535 1999.38C663.992 1994.28 674.545 1990.81 682.825 1988.19C686.294 1987.1 687.923 1986.61 687.949 1986.6C687.917 1986.61 685.4 1987.37 680.951 1988.82C659.355 1995.83 627.182 2007.76 591.949 2027.1C528.276 2065.87 518.162 2067.69 447.555 2139.6C382.184 2215.89 351.977 2271.13 318.972 2383.46C295.459 2496.38 297.457 2527.96 331.637 2681.56C332.192 2683.58 332.759 2685.61 333.342 2687.67C388.11 2841.82 416.001 2854.28 539.451 2952.11C638.744 3027.87 787.433 3059.23 893.392 3055.96C927.69 3054.9 956.938 3033.83 977.17 3006.11C1000.99 2973.48 1025.95 2944.98 1044.69 2932.21C1085.69 2895.88 1142.29 2868.34 1177.09 2855.59C1188.01 2851.48 1196.57 2848.67 1203.29 2846.55C1206.09 2845.67 1207.41 2845.27 1207.44 2845.26C1207.41 2845.27 1205.37 2845.9 1201.77 2847.07C1184.26 2852.77 1158.17 2862.45 1129.68 2878.25C1078.23 2909.92 1069.91 2911.24 1012.93 2969.71C994.229 2991.72 979.184 3011.59 966.358 3032.11C962.371 3038.49 968.06 3046.1 975.215 3043.78C986.707 3040.96 998.326 3037.7 1010.49 3033.83C1098.28 3006.62 1200.69 2945.57 1276.73 2850.79C1283.88 2842.32 1276.99 2830.15 1266.04 2831.81C1251.67 2833.98 1237.6 2836.85 1224.32 2840.48C1198.17 2847.83 1204.1 2845.95 1230.37 2838.69C1234.46 2837.61 1238.48 2836.62 1242.42 2835.7C1275.89 2827.91 1307.69 2811.02 1324.19 2780.87C1381.41 2676.26 1406.56 2538.01 1384.19 2416.44C1381.29 2398.66 1377.33 2380.09 1372.14 2361.09C1338.83 2215 1203.76 2077.23 1123.16 2036.41C1033.07 1987.89 1006.94 1980.26 909.193 1966.26C852.654 1959.61 773.078 1963.02 708.764 1980.68C676.517 1989.79 683.824 1987.43 716.239 1978.52C764.021 1966.04 804.586 1962.55 829.913 1960.68C880.614 1957.86 903.048 1956.47 966.422 1968.71C1023.13 1981.81 1052.8 1990.08 1083.57 2002.78C1090.26 2005.55 1096.51 2009.27 1102.95 2012.57C1128.67 2025.71 1152.29 2023.73 1278.26 2142.07C1349.44 2218.25 1383.43 2292.45 1403.55 2351.42C1420.68 2402.77 1427.3 2444.15 1430.81 2478.44C1442.22 2552.49 1416.9 2711.25 1352.86 2815.93C1351.52 2818.85 1353.71 2822.23 1356.93 2822.15C1378.81 2821.6 1398.46 2823.11 1433.42 2829.91C1478.27 2840.38 1502.51 2846.46 1526.95 2856.19C1533.69 2858.88 1539.96 2862.64 1546.49 2865.81C1556.09 2870.47 1565.8 2873.25 1584.01 2884.77C1627.07 2912 1682.99 2911.8 1723.32 2880.66C1759.88 2852.41 1799.4 2827.86 1841.17 2807.5C1971.45 2743.52 2124.58 2722.5 2270.14 2750.47C2279.26 2752.15 2287.7 2744.91 2287.76 2735.64C2287.76 2735.1 2287.77 2734.57 2287.77 2734.04C2288.22 2709.83 2291.64 2691.35 2295.31 2676.32C2301.61 2643.17 2337.77 2580.82 2380.59 2546.37C2415.15 2510.93 2507.42 2479.87 2560.03 2485.68C2566.71 2485.88 2572.59 2486.25 2577.75 2486.63C2622.86 2491.74 2622.14 2497.96 2653.91 2514.25C2684.29 2532.04 2715.63 2538.76 2744.45 2574.03C2770.71 2610.36 2769.91 2618.9 2788.69 2664.81C2801.51 2699.93 2801.94 2737.86 2799.82 2763.09C2799.16 2771.85 2798.35 2779.17 2797.95 2784.8C2795.68 2806.79 2790.34 2808.13 2781.03 2837.36C2770.43 2866.37 2759.46 2882.28 2741.91 2902.43C2731.22 2917.84 2696.6 2945.37 2666.41 2963.55C2662.19 2966.09 2661.24 2971.86 2664.48 2975.58C2693.24 3008.3 2719.6 3044.71 2741.82 3082.42C2764.27 3120.54 2782.84 3159.98 2797.9 3201.81C2802.47 3214.5 2806.8 3227.69 2810.81 3241.32C2843.28 3352.37 2837.98 3466.39 2815.33 3577.57C2814.84 3580 2814.33 3582.43 2813.81 3584.86C2785.65 3720.57 2720.91 3855.23 2617.12 3951.83C2513.06 4049.51 2378.51 4114.22 2238.24 4134.2C2150.66 4146.9 2061.12 4142.4 1975.98 4121.8C1924.69 4109.44 1874.88 4091.3 1827.91 4067.78C1702.96 4005.52 1599.26 3904.34 1533.73 3784C1527.96 3773.45 1522.47 3762.77 1517.28 3751.95C1511 3738.86 1495.92 3732.63 1481.81 3736.08C1470.28 3739.89 1460.01 3742.9 1450.96 3745.4C1389.34 3759.94 1335.57 3814.38 1336.57 3877.69C1337.69 3947.98 1329.94 4015.15 1311.75 4064.41C1307.06 4081.04 1302.39 4095.52 1298.07 4108.14C1255.93 4217.25 1246.72 4214.32 1189.24 4287.58C1128.16 4356.99 1082.5 4420.6 979.127 4474.08C873.884 4520.93 854.594 4521.42 726.222 4540.74ZM2584.27 2897.69C2628.57 2934.19 2693.38 2946.31 2729.36 2901.57C2733.35 2896.61 2737.47 2891.28 2741.81 2885.5C2768.9 2843.06 2769.75 2828.94 2780.13 2761.97C2780.22 2761.07 2780.32 2760.16 2780.41 2759.24C2783.15 2688.32 2769.47 2679.58 2733.77 2623.14C2696.1 2565.59 2616.04 2522.57 2573.73 2520.91C2568.7 2520.36 2563.56 2519.97 2558.1 2519.74C2518.8 2517.88 2469.09 2527.31 2424.12 2553.31C2371.87 2581.98 2327.96 2646.57 2315.08 2711.26C2313.42 2718.84 2312.06 2726.91 2311.13 2735.36C2309.01 2749.1 2318.86 2761.24 2332.22 2765.06C2423.68 2791.18 2510.18 2836.64 2584.27 2897.69ZM2085.12 4066.01C2087.51 4066.85 2089.64 4067.57 2090.93 4067.11C2094.73 4065.77 2100.69 4064.34 2107.08 4062.66C2116.55 4060.17 2126.23 4058.51 2136.01 4058.08C2165.64 4056.75 2195.16 4053.32 2224.21 4047.82C2233.66 4046.03 2243.08 4044.02 2252.45 4041.8C2264.37 4038.96 2276.6 4037.83 2288.83 4037.12C2291.27 4036.98 2293.73 4036.78 2296.21 4036.52C2307.85 4035.29 2322.35 4031.47 2340.78 4025.51C2354.33 4021.13 2370 4015.57 2388.18 4008.72C2421.95 3996.13 2453.73 3976.53 2472.53 3962.17C2476.52 3959.15 2480.49 3956.05 2484.69 3952.68C2500.44 3939.75 2520.41 3923.83 2554.09 3889.69C2585.74 3857.22 2609.65 3827.08 2626.35 3803.63C2634.9 3791.62 2641.54 3781.42 2646.39 3773.38C2654.67 3759.69 2664.35 3742.56 2673.08 3724.93C2686.89 3697.36 2698.06 3668.41 2703.24 3651.66C2705.1 3645.72 2706.92 3639.44 2708.77 3632.6C2713.47 3615.06 2718.5 3594.08 2723.84 3565.56C2724.26 3563.35 2724.67 3561.09 2725.08 3558.79C2730.89 3525.33 2733.65 3504.47 2736.65 3482.73C2737.82 3473.93 2740.21 3466.16 2742.53 3458.09C2745.81 3446.68 2749.01 3434.45 2747.66 3418.04C2747.34 3414.22 2746.71 3410.16 2746.02 3405.9C2744.73 3398.08 2743.19 3389.71 2742.85 3381.06C2742.73 3378.03 2743 3375.32 2743.25 3372.66C2743.53 3369.73 2743.78 3366.85 2743.43 3363.67C2742.16 3351.78 2740.3 3340.25 2738.41 3330.08C2735.99 3316.99 2733.5 3306.03 2732.43 3299.17C2730.52 3286.94 2726.4 3273.91 2721.81 3261.02C2718.3 3251.12 2714.5 3241.27 2711.23 3231.6C2701.97 3203.91 2684.97 3167.18 2662.59 3132.53C2654.14 3119.43 2648.35 3107.56 2640.29 3092.55C2635.25 3083.24 2629.32 3072.71 2620.95 3060.26C2616.2 3053.21 2610.87 3048.23 2605.91 3043.71C2601.34 3039.55 2597.06 3035.77 2593.64 3031.06C2590.62 3026.89 2589.84 3023.26 2589.08 3019.79C2588.23 3015.94 2587.38 3012.29 2583.41 3008.53C2581.3 3006.53 2578.22 3004.58 2574.54 3002.31C2573.33 3001.57 2572.05 3000.79 2570.72 2999.96C2570.35 2999.73 2570.36 2999.17 2570.67 2998.87C2573.31 2996.32 2566.62 2993.65 2562.95 2993.86C2557.66 2994.15 2552.79 2994.27 2548.56 2994.25C2542.24 2994.27 2537.37 2994.07 2533.56 2993.88C2531.97 2993.79 2531.22 2993.75 2531.21 2993.75C2531.23 2993.75 2532.38 2993.81 2534.43 2993.9C2541.7 2994.18 2551.7 2994.25 2563.35 2993.19C2565.67 2992.98 2566.86 2990.4 2565.49 2988.51C2564.2 2986.71 2562.89 2984.93 2561.9 2983.39C2558.23 2977.69 2549.28 2968.96 2542.06 2962.69C2539.02 2960.04 2536.61 2957.21 2533.77 2953.95C2531.25 2951.05 2528.39 2947.8 2524.38 2944.04C2522.09 2941.9 2520.54 2940 2519.25 2938.42C2518.32 2937.28 2517.52 2936.31 2516.67 2935.56C2515.94 2934.9 2514.99 2934.81 2513.94 2934.71C2513.18 2934.64 2512.35 2934.56 2511.5 2934.27C2509.46 2933.57 2507.26 2932.15 2505.93 2930.86C2505.31 2930.26 2504.89 2929.7 2504.48 2929.14C2504 2928.49 2503.52 2927.84 2502.71 2927.14C2499.01 2923.92 2494.81 2921.58 2490.43 2919.2C2485.61 2916.58 2480.6 2913.95 2475.66 2910.02C2474.11 2908.78 2472.55 2907.31 2471.04 2905.88C2469.45 2904.39 2467.9 2902.95 2466.46 2901.91C2460.59 2897.68 2454.2 2895.22 2448.28 2893.04C2444.34 2891.59 2440.62 2890.26 2437.4 2888.61C2431.5 2885.58 2427.68 2885.23 2424.86 2884.97C2424.65 2884.95 2424.44 2884.93 2424.24 2884.91C2422.13 2884.71 2420.21 2883.78 2418.4 2882.69C2417.61 2882.14 2416.78 2881.57 2415.94 2881.17C2415.88 2881.14 2415.81 2881.11 2415.75 2881.08C2410.73 2878.02 2405.78 2874.92 2400.89 2871.93C2389.88 2865.22 2378.61 2858.82 2365.94 2854.26C2363.2 2853.27 2360.21 2852.74 2357.18 2852.21C2353.46 2851.57 2349.65 2850.95 2346.08 2849.53C2337.89 2846.29 2329.68 2853.87 2333.34 2861.88C2341.88 2880.52 2351.61 2896.04 2360.59 2906.02C2389.64 2940.05 2399.29 2947.23 2437.26 2967.9C2459.45 2979.26 2492.57 2990.33 2521.74 2992.98C2536.4 2994.2 2533.03 2994.01 2518.33 2992.79C2496.74 2990.73 2479.5 2985.99 2468.71 2983.1C2447.23 2976.97 2437.5 2974.51 2413.21 2959.63C2394.87 2947.38 2383.73 2940.28 2373.98 2932.27C2368.33 2927.63 2363.65 2921.95 2358.4 2916.87C2350.39 2909.11 2338.89 2897.82 2309.36 2840.64C2306.9 2835.03 2302.44 2830.4 2296.58 2828.64C2292.18 2827.33 2287.8 2826.33 2283.44 2825.79C2279.37 2825.28 2275.31 2825.19 2271.23 2825.15C2269.8 2825.13 2268.36 2825.12 2266.92 2825.1C2265.93 2825.08 2265.34 2823.82 2265.86 2822.97C2266.67 2821.62 2267.38 2820.46 2269.74 2819.9C2275.34 2818.57 2281.88 2816.57 2281.9 2813.9C2281.9 2813.17 2282.23 2812.45 2282.58 2811.72C2283.45 2809.9 2284.36 2808.03 2279.84 2805.96C2276.81 2804.56 2268.86 2801.22 2263.24 2801.54C2262.02 2801.61 2261.18 2802.1 2260.24 2802.64C2259.8 2802.9 2259.33 2803.17 2258.78 2803.42C2257.29 2804.1 2255.23 2804.58 2251.53 2804.09C2250.68 2803.98 2249.75 2803.85 2248.8 2803.71C2245 2803.16 2240.75 2802.59 2239 2803.34C2236.97 2804.19 2237.11 2805.63 2237.27 2807.3C2237.48 2809.48 2237.7 2812.05 2233.34 2814.33C2232.48 2814.78 2231 2814.72 2229.89 2814.69C2229.1 2814.66 2228.5 2814.65 2228.41 2814.82C2228.31 2815.01 2228.49 2815.47 2228.71 2816.06C2229.49 2818.14 2230.79 2821.72 2222.88 2820.55C2220.74 2820.24 2218.29 2819.69 2216.1 2819.22C2212.87 2818.51 2210.19 2817.96 2209.75 2818.45C2209.46 2818.77 2209.05 2819.01 2208.62 2818.94C2206.55 2818.6 2204.47 2818.26 2202.4 2817.94C2201.87 2817.86 2201.36 2817.73 2200.84 2817.58C2197.65 2816.67 2193.28 2816.19 2187.86 2815.68C2186.43 2815.55 2184.93 2815.41 2183.37 2815.27C2178.24 2814.63 2173.11 2814.05 2167.98 2813.53C2163.93 2812.96 2159.65 2812.23 2155.06 2811.28C2145.89 2809.36 2137.92 2806.77 2130.05 2804.36C2127.83 2803.68 2125.6 2803.02 2123.35 2802.39C2122.71 2802.22 2122.79 2801.21 2123.44 2801.08C2129.72 2799.9 2132.24 2797.59 2134.6 2795.44C2136.18 2794.02 2137.67 2792.68 2140.12 2791.87C2144.61 2790.38 2144.25 2788.49 2143.96 2787.07C2143.81 2786.34 2143.7 2785.74 2144.31 2785.41C2144.8 2785.14 2145.92 2785.05 2147.08 2784.96C2148.09 2784.87 2149.13 2784.79 2149.81 2784.59C2157.99 2782.19 2155.69 2780.48 2152.22 2777.97C2150.32 2776.59 2148.08 2774.99 2147.1 2772.89C2146.48 2771.25 2146.42 2767.72 2144.76 2767.13C2143.64 2766.73 2142.52 2766.34 2141.4 2765.94C2141.1 2765.84 2140.78 2765.78 2140.46 2765.82C2139.36 2765.98 2138.42 2766.6 2137.16 2767.55C2134.6 2769.48 2126.44 2770.07 2120.04 2770.68C2117.09 2770.95 2114.52 2771.21 2113.07 2771.54C2105.4 2773.29 2107.71 2775.53 2109.69 2777.48C2110.79 2778.55 2111.8 2779.55 2111.04 2780.35C2110.72 2780.68 2111.19 2781.01 2111.67 2781.34C2112.04 2781.59 2112.42 2781.85 2112.44 2782.13C2112.56 2784.11 2108.11 2785.65 2104.03 2787.13C2101.69 2787.98 2099.47 2788.81 2098.27 2789.65C2097.9 2789.91 2097.61 2790.16 2097.34 2790.41C2096.94 2790.78 2096.56 2791.13 2095.94 2791.44C2094.53 2792.14 2091.61 2792.71 2088.42 2793.35C2086.78 2793.69 2085.07 2794.04 2083.47 2794.44C2081.38 2794.96 2080.68 2795.79 2079.94 2796.66C2079.41 2797.28 2078.86 2797.91 2077.82 2798.48C2075.92 2799.5 2072 2800.11 2068.38 2800.72C2066.8 2800.99 2065.28 2801.26 2063.99 2801.54C2063.41 2801.67 2062.81 2802.08 2062.24 2802.2C2056.63 2803.32 2051.3 2804.51 2046.14 2805.73C2018.75 2812.34 1995.7 2819 1960.48 2826.22C1953.81 2827.62 1946.83 2829.68 1939.85 2832.11C1922.78 2836.69 1905.88 2841.98 1889.2 2847.96C1878.06 2851.96 1866.31 2854.12 1854.89 2857.2C1842.3 2860.6 1830.19 2866.07 1816.17 2873.07C1805.81 2878.25 1794.4 2884.27 1780.98 2891.21C1758.44 2902.9 1735.98 2916.52 1712.5 2934.47C1704.29 2940.7 1695.91 2947.56 1687.77 2954.57C1683.09 2958.61 1683.06 2965.8 1687.58 2970C1745.95 3031.68 1774.1 3092.06 1790.79 3140.12C1805.02 3181.96 1810.61 3215.76 1813.63 3243.78C1823.31 3304.36 1802.02 3434.02 1750.07 3519.77C1722.3 3581.1 1638.4 3658.84 1558.74 3703.73C1549.02 3709.21 1544.47 3721.21 1549.8 3731.01C1552.24 3735.5 1554.92 3739.57 1557.75 3743.41C1561.23 3748.15 1564.71 3752.9 1567.82 3757.89C1568.77 3759.4 1569.72 3760.91 1570.67 3762.42C1587.05 3788.16 1605.2 3812.7 1624.95 3835.79C1638.71 3855.09 1654.13 3874.84 1676.98 3897.88C1686.85 3907.8 1696.57 3917.61 1706.24 3926.78C1720.49 3940.31 1734.62 3952.42 1748.27 3961.26C1757.39 3967.18 1766.38 3974.15 1775.62 3980.91C1787.95 3989.95 1800.76 3998.58 1813.83 4003.44C1822.06 4006.5 1829.85 4008.82 1837.07 4010.83C1848.51 4014.02 1858.55 4016.48 1867.04 4020.05C1882.9 4026.7 1897.56 4030.59 1910.33 4033.59C1925.82 4037.24 1938.73 4039.7 1949.47 4044.38C1951.1 4045.09 1952.95 4045.94 1955.06 4046.89C1962.82 4050.38 1973.83 4055.23 1989.44 4059.03C1996.06 4060.63 2003.44 4062.03 2011.6 4062.98C2021.32 4064.11 2030.73 4064.01 2039.82 4063.7C2053.02 4063.25 2065.82 4062.43 2079.18 4064.34C2081.18 4064.62 2083.24 4065.36 2085.12 4066.01ZM1291.22 3621.65C1310.67 3670.35 1352.12 3712.21 1404.17 3705.76C1417.38 3704.12 1429.25 3701.64 1439.4 3698.33C1448.62 3696.05 1457.94 3693.41 1467.7 3690.28C1479.51 3686.58 1485.42 3673.7 1481.7 3661.9C1467.17 3615.77 1457.61 3568.26 1453.32 3520.46C1449.7 3480.31 1449.73 3440.04 1453.35 3400.19C1456.04 3370.52 1460.75 3340.9 1467.33 3311.99C1468.25 3307.96 1469.62 3304.19 1471.14 3301.52C1472.67 3298.85 1474.2 3297.5 1475.43 3297.76C1476.66 3298.03 1477.5 3299.91 1477.84 3302.94C1478.17 3305.97 1477.97 3309.93 1477.35 3313.95C1472.83 3343.05 1470.24 3372.58 1469.66 3401.89C1469.19 3425.05 1469.97 3448.17 1471.96 3471.14C1473.52 3489.1 1467.15 3507.75 1467.24 3525.77C1467.27 3532.63 1468.43 3542.58 1470.64 3549.62C1472.61 3555.94 1475.04 3560.5 1477.39 3564.81C1479.85 3569.31 1482.21 3573.54 1484.01 3579.22C1487.06 3588.85 1491.5 3597.64 1496.33 3606.66C1497.43 3608.7 1498.54 3610.76 1499.67 3612.84C1501.06 3615.39 1502.2 3618.08 1503.13 3620.84C1512.08 3647.51 1542.79 3659.12 1566.68 3644.25C1607.61 3618.78 1647.68 3585.15 1681.54 3543.42C1753.95 3458.5 1790.07 3316.22 1768.74 3194.44C1766.52 3180.11 1763.44 3165.13 1759.38 3149.79C1747.14 3094.01 1716.42 3039.52 1680.55 2994.05C1672.31 2983.61 1656.85 2982.84 1647.71 2992.5C1638.73 3001.89 1628.47 3011.12 1619.16 3020.03C1606.05 3032.55 1594.79 3044.52 1591.22 3054.15C1590.07 3057.22 1589.54 3060.59 1589.05 3063.85C1588.39 3068.29 1586.45 3072.39 1583.8 3076C1582.78 3077.39 1581.76 3078.78 1580.75 3080.18C1579.11 3082.46 1577.3 3084.62 1575.42 3086.71C1570.95 3091.72 1565.79 3098.31 1561.5 3105.86C1557.8 3112.39 1554.58 3119.21 1550.7 3125.64C1549.78 3127.16 1548.88 3128.67 1547.99 3130.17C1541.98 3140.33 1536.36 3150.42 1530.96 3160.76C1529.19 3164.14 1527.44 3167.57 1525.7 3171.03C1525.69 3171.07 1525.67 3171.1 1525.65 3171.13C1522.17 3178.09 1518.81 3185.12 1515.6 3192.15C1514.23 3195.16 1512.87 3198.18 1511.54 3201.22C1508.16 3208.92 1504.93 3216.7 1501.86 3224.47C1500.24 3228.57 1498.63 3232.79 1497.08 3236.94C1494.57 3243.7 1492.14 3250.58 1489.82 3257.5C1486.06 3268.74 1482.66 3279.8 1479.49 3291.19C1478.97 3293.05 1478.28 3294.8 1477.54 3296.04C1476.8 3297.27 1476.08 3297.9 1475.5 3297.78C1474.93 3297.65 1474.52 3296.77 1474.37 3295.33C1474.22 3293.89 1474.33 3292 1474.67 3290.09C1476.74 3278.34 1479.07 3266.88 1481.79 3255.18C1483.47 3247.99 1485.26 3240.81 1487.15 3233.73C1488.31 3229.38 1489.55 3224.97 1490.8 3220.66C1493.17 3212.49 1495.73 3204.27 1498.44 3196.13C1499.51 3192.91 1500.61 3189.71 1501.72 3186.52C1504.34 3179.03 1507.13 3171.53 1510.05 3164.07C1510.07 3164.03 1510.09 3163.98 1510.1 3163.94C1511.55 3160.27 1513.02 3156.62 1514.5 3153.02C1519.08 3141.93 1523.92 3131.05 1529.19 3120.05C1531.91 3114.37 1534.82 3108.53 1537.82 3102.71C1539.49 3099.48 1541.18 3096.27 1542.86 3093.13C1543.79 3091.42 1544.73 3089.68 1545.68 3087.95C1567.59 3048.03 1593.54 3010.47 1623.46 2975.54C1634.7 2962.41 1634.67 2942.68 1621.83 2931.11C1599.65 2911.11 1578.11 2895.66 1559.94 2886.34C1487.22 2846.66 1465.99 2840.46 1386.8 2829.09C1362.87 2826.27 1340.82 2840.19 1326.8 2859.8C1260.87 2952.05 1122.92 3055.94 1024.6 3079.63C1010.5 3084.23 997.94 3087.84 986.884 3090.83C953.022 3098.57 923.774 3121.61 913.581 3154.81C912.318 3158.93 911.053 3163.14 909.78 3167.45C900.761 3210.17 927.178 3249.79 966.439 3268.9C975.244 3273.19 983.531 3277.46 991.381 3281.65C1070.39 3318.76 1208.78 3445.41 1268.6 3575.56C1276.81 3588.96 1284.36 3604.49 1291.22 3621.65ZM1241 3692.31C1255.2 3695.86 1267.42 3682.7 1262.92 3668.77C1216.59 3511.2 1072.37 3349.18 904.427 3278.64C901.582 3277.38 898.432 3279.58 898.681 3282.69C901.204 3314.19 908.685 3350.47 921.098 3407.98C921.533 3409.61 921.978 3411.25 922.435 3412.91C965.504 3537.75 990.638 3546.45 1089.99 3624.07C1132.8 3656.34 1186.91 3678.79 1241 3692.31Z" fill="#FF054C" fill-opacity="0.66" style="mix-blend-mode:multiply"/>
<path d="M2107.52 3.28125C2204.4 -7.7105 2301.52 10.7973 2365.06 30.9092C2387.12 37.6733 2405.34 44.2278 2419.3 49.127C2473.24 69.8872 2476.74 77.6163 2545.86 120.279C2613.47 165.86 2648.57 202.335 2691.79 258.469C2742.37 310.691 2828.78 513.122 2829.36 593.975C2840.15 672.437 2829.12 762.819 2816.58 815.098C2812.82 831.583 2809.36 844.173 2806.54 853.981C2805.34 858.11 2804.77 860.024 2804.77 860.033C2804.77 860.023 2805.66 857.059 2807.15 851.739C2814.36 826.045 2823.65 786.815 2827.83 739.755C2831.74 652.196 2836.29 641.127 2812.26 525.052C2780.56 411.239 2747.01 345.001 2658.16 239.311C2562.57 142.849 2531.73 121.682 2357.72 55.6768C2355.37 54.9164 2352.99 54.1594 2350.58 53.4063C2162.99 7.96649 2132.91 23.445 1954.48 80.1387C1771.26 142.266 1609.6 339.221 1578.25 450.993C1573.46 464.176 1569.01 477.766 1564.82 492.309C1546.32 554.535 1536.28 629.933 1540.55 709.724C1543.4 762.707 1587.56 798.903 1639.34 810.479C1665.26 816.274 1692.18 825.558 1721.66 842.405C1789.7 886.809 1795.47 900.042 1856.62 966.976C1900.72 1019.02 1926.49 1083.23 1939.12 1127.88C1943.64 1143.32 1946.89 1156.41 1949.63 1166.37C1959.12 1205.61 1953.21 1211 1955.53 1267.32C1955.53 1272.72 1958.78 1277.62 1963.83 1279.52C1972.94 1282.94 1982.29 1286.22 1991.86 1289.32C2157.88 1351.01 2380.9 1307.11 2473.18 1254.34C2579.17 1197.19 2603.59 1176.62 2680.95 1090.01C2724.28 1038.96 2772.51 958.691 2797.02 884.254C2809.07 846.763 2806.66 855.465 2794.21 892.956C2775.23 947.798 2752.23 989.745 2737.4 1015.62C2706.8 1066.81 2693.27 1089.34 2640.19 1143.35C2589.83 1191.12 2561.89 1214.04 2528.73 1235.94C2522.71 1239.91 2516.18 1243.06 2509.83 1246.5C2479.13 1263.12 2469 1288.02 2267.99 1333.87C2147.49 1353.15 2053.41 1337.64 1983.15 1318.7C1967.9 1314.48 1952.27 1324.8 1949.26 1340.33C1945.13 1361.62 1938.95 1381.65 1930.7 1404.59C1926.81 1420.92 1938.39 1438.54 1955.13 1439.68C1973.99 1440.96 1993.73 1444.3 2026.81 1447.23C2105.02 1458.62 2173.03 1457.78 2260.36 1506.92C2343.68 1560.46 2352.03 1575.25 2426.79 1657.43C2480.69 1721.23 2512.94 1799.53 2528.58 1854.3C2534.17 1873.22 2538.15 1889.28 2541.38 1901.52C2552.57 1949.71 2547.11 1956.07 2549.7 2025.33C2549.47 2094.96 2539.8 2137.17 2519.88 2194.21C2506.14 2254.66 2403.12 2411.16 2346.17 2449.79C2295.63 2494.5 2226.14 2528.9 2183.2 2544.64C2169.75 2549.73 2159.19 2553.21 2150.91 2555.83C2147.44 2556.92 2145.81 2557.41 2145.79 2557.42C2145.82 2557.41 2148.34 2556.64 2152.79 2555.2C2174.38 2548.18 2206.56 2536.26 2241.79 2516.92C2305.46 2478.15 2315.57 2476.32 2386.18 2404.42C2451.55 2328.13 2481.76 2272.89 2514.77 2160.56C2538.28 2047.64 2536.28 2016.06 2502.1 1862.46C2501.55 1860.44 2500.98 1858.4 2500.39 1856.35C2445.63 1702.2 2417.74 1689.73 2294.29 1591.91C2194.99 1516.15 2046.31 1484.79 1940.35 1488.06C1906.05 1489.12 1876.8 1510.19 1856.57 1537.9C1832.75 1570.53 1807.79 1599.04 1789.04 1611.8C1748.04 1648.14 1691.44 1675.67 1656.64 1688.42C1645.73 1692.54 1637.17 1695.34 1630.45 1697.46C1627.63 1698.35 1626.31 1698.75 1626.3 1698.75C1626.31 1698.75 1628.35 1698.13 1631.97 1696.95C1649.47 1691.25 1675.56 1681.56 1704.06 1665.77C1755.51 1634.1 1763.83 1632.77 1820.81 1574.31C1839.51 1552.3 1854.55 1532.43 1867.38 1511.9C1871.37 1505.52 1865.68 1497.92 1858.52 1500.24C1847.03 1503.06 1835.41 1506.31 1823.25 1510.19C1735.45 1537.4 1633.05 1598.44 1557.01 1693.23C1549.86 1701.69 1556.74 1713.86 1567.7 1712.21C1582.06 1710.04 1596.14 1707.17 1609.41 1703.54C1635.57 1696.18 1629.64 1698.06 1603.36 1705.33C1599.28 1706.4 1595.26 1707.4 1591.32 1708.32C1557.85 1716.11 1526.04 1733 1509.55 1763.15C1452.33 1867.76 1427.17 2006.01 1449.54 2127.57C1452.45 2145.36 1456.41 2163.93 1461.6 2182.92C1494.91 2329.02 1629.98 2466.79 1710.58 2507.61C1800.67 2556.13 1826.8 2563.76 1924.54 2577.76C1981.08 2584.4 2060.66 2580.99 2124.97 2563.33C2157.22 2554.23 2149.91 2556.59 2117.5 2565.49C2069.72 2577.98 2029.15 2581.47 2003.82 2583.33C1953.12 2586.15 1930.69 2587.54 1867.31 2575.3C1810.6 2562.21 1780.94 2553.94 1750.17 2541.23C1743.48 2538.47 1737.23 2534.74 1730.79 2531.45C1705.06 2518.31 1681.45 2520.29 1555.48 2401.95C1484.3 2325.77 1450.31 2251.56 1430.19 2192.6C1413.06 2141.25 1406.44 2099.87 1402.93 2065.57C1391.51 1991.52 1416.84 1832.76 1480.88 1728.09C1482.22 1725.16 1480.03 1721.78 1476.81 1721.86C1454.92 1722.42 1435.28 1720.91 1400.32 1714.11C1355.47 1703.64 1331.23 1697.55 1306.79 1687.83C1300.04 1685.14 1293.78 1681.38 1287.25 1678.2C1277.65 1673.54 1267.94 1670.77 1249.73 1659.25C1206.67 1632.01 1150.75 1632.21 1110.42 1663.36C1073.86 1691.61 1034.34 1716.16 992.57 1736.52C862.283 1800.5 709.153 1821.51 563.594 1793.55C554.475 1791.86 546.042 1799.11 545.98 1808.38C545.977 1808.92 545.972 1809.45 545.965 1809.98C545.52 1834.18 542.099 1852.66 538.432 1867.69C532.13 1900.85 495.967 1963.19 453.144 1997.65C418.587 2033.09 326.316 2064.15 273.704 2058.33C267.023 2058.13 261.145 2057.76 255.991 2057.38C210.879 2052.27 211.599 2046.06 179.826 2029.76C149.451 2011.97 118.113 2005.25 89.2836 1969.99C63.0283 1933.65 63.8255 1925.11 45.0512 1879.2C32.2297 1844.08 31.7957 1806.16 33.9165 1780.93C34.5767 1772.17 35.391 1764.85 35.7905 1759.22C38.0551 1737.23 43.4022 1735.89 52.7084 1706.65C63.3065 1677.65 74.2777 1661.73 91.8256 1641.58C102.515 1626.17 137.14 1598.65 167.327 1580.46C171.546 1577.92 172.498 1572.15 169.259 1568.44C140.493 1535.72 114.135 1499.3 91.9223 1461.59C69.4675 1423.47 50.902 1384.04 35.8344 1342.2C31.2663 1329.51 26.9391 1316.33 22.9331 1302.7C-9.53675 1191.65 -4.24014 1077.62 18.4057 966.45C18.9012 964.02 19.4074 961.588 19.9243 959.155C48.0824 823.451 112.83 688.785 216.614 592.188C320.676 494.504 455.231 429.8 595.499 409.817C683.074 397.119 772.621 401.619 857.76 422.221C909.044 434.58 958.854 452.713 1005.83 476.238C1130.78 538.495 1234.48 639.677 1300.01 760.021C1305.78 770.561 1311.26 781.248 1316.46 792.064C1322.74 805.157 1337.82 811.386 1351.93 807.937C1363.46 804.126 1373.73 801.121 1382.77 798.612C1444.4 784.081 1498.17 729.633 1497.16 666.327C1496.05 596.037 1503.8 528.863 1521.99 479.605C1526.68 462.974 1531.35 448.493 1535.66 435.877C1577.81 326.766 1587.02 329.7 1644.5 256.438C1705.57 187.03 1751.24 123.416 1854.61 69.9385C1959.85 23.087 1979.14 22.5927 2107.52 3.28125ZM249.469 1646.33C205.164 1609.82 140.353 1597.7 104.381 1642.44C100.389 1647.41 96.2656 1652.74 91.9262 1658.51C64.8347 1700.96 63.9853 1715.07 53.6118 1782.04C53.5148 1782.94 53.4202 1783.85 53.3276 1784.77C50.5832 1855.69 64.2695 1864.44 99.9692 1920.88C137.64 1978.43 217.699 2021.45 260.005 2023.11C265.036 2023.66 270.18 2024.05 275.636 2024.27C314.939 2026.14 364.65 2016.71 409.617 1990.7C461.867 1962.04 505.774 1897.45 518.658 1832.76C520.319 1825.18 521.678 1817.1 522.606 1808.65C524.728 1794.92 514.881 1782.78 501.516 1778.96C410.059 1752.84 323.558 1707.38 249.469 1646.33ZM748.62 478.002C746.23 477.163 744.102 476.444 742.809 476.902C739.008 478.243 733.047 479.676 726.656 481.359C717.191 483.842 707.505 485.506 697.729 485.942C668.097 487.262 638.58 490.696 609.529 496.195C600.082 497.983 590.654 499.994 581.284 502.221C569.37 505.052 557.137 506.183 544.912 506.893C542.472 507.035 540.011 507.232 537.526 507.492C525.889 508.728 511.387 512.549 492.955 518.503C479.411 522.891 463.737 528.444 445.557 535.294C411.785 547.891 380.01 567.491 361.211 581.849C357.215 584.871 353.245 587.968 349.049 591.337C333.294 604.263 313.323 620.19 279.649 654.324C247.992 686.794 224.086 716.934 207.385 740.389C198.837 752.399 192.201 762.599 187.351 770.633C179.07 784.326 169.386 801.461 160.653 819.088C146.844 846.656 135.673 875.609 130.495 892.356C128.633 898.292 126.816 904.58 124.968 911.416C120.27 928.954 115.235 949.934 109.894 978.454C109.482 980.67 109.07 982.928 108.661 985.229C102.844 1018.69 100.088 1039.54 97.0893 1061.29C95.9219 1070.08 93.5323 1077.85 91.2084 1085.92C87.9323 1097.33 84.7274 1109.56 86.0815 1125.97C86.4018 1129.8 87.0226 1133.85 87.7221 1138.12C89.0057 1145.94 90.5486 1154.31 90.892 1162.96C91.0125 1165.99 90.7408 1168.7 90.4887 1171.36C90.2122 1174.29 89.9607 1177.16 90.3032 1180.35C91.5787 1192.23 93.4369 1203.77 95.3256 1213.94C97.75 1227.03 100.236 1237.98 101.312 1244.84C103.223 1257.08 107.338 1270.11 111.927 1283C115.441 1292.89 119.238 1302.75 122.506 1312.42C131.764 1340.11 148.765 1376.83 171.149 1411.49C179.599 1424.59 185.388 1436.45 193.451 1451.46C198.485 1460.78 204.422 1471.31 212.788 1483.75C217.538 1490.81 222.865 1495.79 227.825 1500.3C232.401 1504.47 236.682 1508.24 240.1 1512.96C243.122 1517.12 243.895 1520.75 244.661 1524.22C245.513 1528.08 246.354 1531.73 250.325 1535.49C252.438 1537.49 255.52 1539.44 259.202 1541.7C260.41 1542.45 261.686 1543.23 263.015 1544.06C263.386 1544.29 263.38 1544.84 263.066 1545.15C260.427 1547.7 267.12 1550.37 270.785 1550.16C276.08 1549.86 280.943 1549.75 285.181 1549.77C291.498 1549.75 296.371 1549.95 300.178 1550.14C301.776 1550.22 302.522 1550.27 302.531 1550.27C302.521 1550.27 301.367 1550.2 299.311 1550.12C292.039 1549.83 282.038 1549.76 270.388 1550.82C268.069 1551.04 266.883 1553.62 268.247 1555.51C269.541 1557.3 270.845 1559.08 271.842 1560.63C275.506 1566.32 284.458 1575.06 291.676 1581.32C294.721 1583.98 297.129 1586.81 299.966 1590.07C302.486 1592.97 305.353 1596.22 309.359 1599.97C311.644 1602.11 313.196 1604.02 314.484 1605.59C315.416 1606.73 316.214 1607.7 317.065 1608.46C317.802 1609.12 318.743 1609.21 319.799 1609.31C320.559 1609.38 321.386 1609.45 322.238 1609.74C324.277 1610.44 326.482 1611.87 327.813 1613.16C328.427 1613.75 328.844 1614.31 329.258 1614.87C329.741 1615.52 330.22 1616.17 331.026 1616.88C334.727 1620.1 338.926 1622.44 343.305 1624.81C348.133 1627.43 353.133 1630.06 358.077 1634C359.632 1635.23 361.186 1636.71 362.701 1638.13C364.285 1639.62 365.838 1641.06 367.278 1642.1C373.145 1646.34 379.54 1648.8 385.462 1650.98C389.399 1652.43 393.121 1653.76 396.333 1655.41C402.241 1658.44 406.057 1658.78 408.877 1659.05C409.091 1659.07 409.3 1659.09 409.503 1659.1C411.606 1659.31 413.526 1660.24 415.336 1661.33C416.132 1661.88 416.957 1662.45 417.799 1662.85C417.863 1662.88 417.927 1662.91 417.991 1662.94C423.005 1665.99 427.958 1669.1 432.851 1672.08C443.858 1678.79 455.133 1685.2 467.803 1689.76C470.542 1690.74 473.526 1691.28 476.56 1691.8C480.278 1692.45 484.089 1693.07 487.657 1694.48C495.846 1697.73 504.063 1690.15 500.395 1682.14C491.855 1663.49 482.129 1647.98 473.145 1637.99C444.094 1603.97 434.453 1596.79 396.475 1576.12C374.289 1564.75 341.165 1553.68 311.998 1551.03C297.341 1549.81 300.703 1550.01 315.41 1551.23C336.998 1553.29 354.239 1558.03 365.031 1560.92C386.511 1567.05 396.236 1569.51 420.524 1584.39C438.871 1596.64 450.013 1603.74 459.763 1611.75C465.405 1616.39 470.09 1622.07 475.336 1627.15C483.35 1634.91 494.844 1646.2 524.381 1703.38C526.838 1708.99 531.298 1713.61 537.163 1715.37C541.558 1716.69 545.94 1717.69 550.299 1718.23C554.364 1718.73 558.432 1718.82 562.509 1718.87C563.94 1718.89 565.376 1718.9 566.815 1718.92C567.807 1718.94 568.396 1720.19 567.883 1721.04C567.066 1722.39 566.363 1723.55 563.995 1724.12C558.402 1725.45 551.853 1727.45 551.838 1730.12C551.837 1730.84 551.504 1731.57 551.157 1732.29C550.288 1734.11 549.382 1735.98 553.895 1738.05C556.926 1739.45 564.873 1742.8 570.498 1742.47C571.719 1742.41 572.561 1741.92 573.494 1741.38C573.94 1741.12 574.409 1740.85 574.953 1740.6C576.448 1739.92 578.504 1739.44 582.211 1739.93C583.062 1740.04 583.986 1740.17 584.938 1740.31C588.735 1740.86 592.984 1741.43 594.743 1740.68C596.767 1739.82 596.625 1738.39 596.468 1736.72C596.26 1734.54 596.042 1731.97 600.395 1729.69C601.257 1729.24 602.734 1729.29 603.849 1729.33C604.634 1729.35 605.235 1729.37 605.325 1729.2C605.424 1729.01 605.252 1728.54 605.033 1727.96C604.253 1725.88 602.948 1722.3 610.853 1723.47C613 1723.78 615.452 1724.32 617.639 1724.8C620.865 1725.51 623.546 1726.06 623.986 1725.57C624.277 1725.24 624.685 1725.01 625.119 1725.08C627.192 1725.42 629.265 1725.75 631.337 1726.07C631.864 1726.16 632.382 1726.29 632.895 1726.43C636.087 1727.35 640.454 1727.83 645.881 1728.33C647.306 1728.47 648.808 1728.6 650.367 1728.75C655.498 1729.39 660.631 1729.97 665.756 1730.48C669.813 1731.06 674.09 1731.78 678.683 1732.74C687.848 1734.65 695.821 1737.25 703.688 1739.65C705.907 1740.33 708.14 1741 710.387 1741.62C711.023 1741.8 710.945 1742.81 710.295 1742.93C704.02 1744.12 701.501 1746.43 699.133 1748.57C697.562 1749.99 696.069 1751.33 693.618 1752.15C689.124 1753.64 689.493 1755.53 689.778 1756.94C689.924 1757.67 690.035 1758.27 689.425 1758.61C688.933 1758.87 687.813 1758.97 686.657 1759.06C685.649 1759.14 684.606 1759.23 683.933 1759.42C675.744 1761.83 678.053 1763.53 681.514 1766.04C683.419 1767.42 685.658 1769.03 686.642 1771.12C687.261 1772.77 687.318 1776.3 688.976 1776.89C690.097 1777.29 691.219 1777.68 692.342 1778.07C692.642 1778.18 692.959 1778.24 693.273 1778.19C694.381 1778.03 695.322 1777.42 696.579 1776.47C699.139 1774.54 707.294 1773.94 713.695 1773.34C716.651 1773.07 719.218 1772.81 720.665 1772.48C728.342 1770.73 726.029 1768.49 724.042 1766.54C722.945 1765.46 721.942 1764.46 722.699 1763.67C723.019 1763.33 722.545 1763.01 722.068 1762.68C721.699 1762.42 721.321 1762.16 721.302 1761.89C721.177 1759.91 725.625 1758.37 729.706 1756.88C732.044 1756.03 734.263 1755.2 735.471 1754.37C735.839 1754.11 736.13 1753.85 736.402 1753.6C736.799 1753.24 737.181 1752.89 737.799 1752.58C739.205 1751.87 742.131 1751.31 745.323 1750.66C746.959 1750.33 748.666 1749.98 750.272 1749.58C752.353 1749.06 753.059 1748.23 753.802 1747.36C754.327 1746.74 754.877 1746.1 755.923 1745.54C757.819 1744.52 761.738 1743.9 765.362 1743.29C766.941 1743.03 768.461 1742.76 769.75 1742.47C770.324 1742.35 770.927 1741.94 771.503 1741.82C777.104 1740.69 782.436 1739.51 787.603 1738.29C814.983 1731.68 838.039 1725.01 873.257 1717.8C879.923 1716.4 886.906 1714.34 893.891 1711.91C910.96 1707.33 927.861 1702.04 944.542 1696.05C955.675 1692.06 967.43 1689.9 978.851 1686.82C991.436 1683.41 1003.55 1677.94 1017.57 1670.95C1027.93 1665.77 1039.34 1659.75 1052.76 1652.81C1075.29 1641.12 1097.76 1627.5 1121.24 1609.54C1129.45 1603.31 1137.83 1596.46 1145.97 1589.44C1150.65 1585.41 1150.68 1578.22 1146.15 1574.02C1087.79 1512.34 1059.64 1451.95 1042.95 1403.9C1028.72 1362.05 1023.13 1328.26 1020.11 1300.23C1010.43 1239.65 1031.71 1109.99 1083.67 1024.25C1111.44 962.915 1195.33 885.182 1275 840.288C1284.72 834.808 1289.27 822.809 1283.94 813.003C1281.49 808.514 1278.82 804.448 1275.99 800.608C1272.5 795.871 1269.03 791.115 1265.92 786.124C1264.97 784.612 1264.02 783.103 1263.06 781.599C1246.69 755.853 1228.54 731.318 1208.79 708.231C1195.03 688.925 1179.6 669.172 1156.76 646.133C1146.88 636.215 1137.16 626.409 1127.49 617.234C1113.25 603.707 1099.12 591.594 1085.47 582.753C1076.34 576.836 1067.36 569.866 1058.12 563.104C1045.79 554.07 1032.98 545.432 1019.9 540.577C1011.68 537.519 1003.89 535.198 996.672 533.184C985.233 530.001 975.191 527.54 966.697 523.97C950.836 517.312 936.178 513.429 923.405 510.423C907.919 506.774 895.003 504.318 884.268 499.633C882.64 498.923 880.782 498.074 878.682 497.127C870.922 493.633 859.907 488.789 844.295 484.99C837.677 483.384 830.296 481.989 822.135 481.035C812.422 479.903 803.004 480.006 793.919 480.313C780.715 480.766 767.919 481.584 754.555 479.679C752.557 479.394 750.498 478.661 748.62 478.002ZM1542.52 922.366C1523.07 873.664 1481.62 831.809 1429.57 838.257C1416.36 839.894 1404.49 842.38 1394.34 845.686C1385.12 847.97 1375.8 850.604 1366.03 853.74C1354.23 857.435 1348.32 870.314 1352.04 882.112C1366.57 928.241 1376.13 975.757 1380.41 1023.56C1384.04 1063.7 1384.01 1103.97 1380.39 1143.83C1377.69 1173.5 1372.98 1203.12 1366.41 1232.02C1365.49 1236.06 1364.12 1239.83 1362.6 1242.5C1361.07 1245.17 1359.53 1246.52 1358.31 1246.25C1357.08 1245.98 1356.24 1244.11 1355.9 1241.08C1355.57 1238.04 1355.77 1234.09 1356.39 1230.07C1360.91 1200.97 1363.5 1171.44 1364.08 1142.13C1364.55 1118.97 1363.77 1095.84 1361.77 1072.87C1360.21 1054.92 1366.58 1036.27 1366.5 1018.25C1366.47 1011.39 1365.31 1001.44 1363.1 994.401C1361.13 988.074 1358.69 983.521 1356.35 979.207C1353.89 974.703 1351.52 970.478 1349.73 964.796C1346.68 955.162 1342.24 946.373 1337.41 937.353C1336.31 935.314 1335.2 933.261 1334.07 931.18C1332.68 928.624 1331.54 925.937 1330.61 923.18C1321.66 896.504 1290.95 884.895 1267.06 899.762C1226.12 925.236 1186.06 958.864 1152.2 1000.6C1079.79 1085.52 1043.67 1227.8 1065 1349.57C1067.22 1363.91 1070.29 1378.89 1074.36 1394.23C1086.6 1450.01 1117.32 1504.5 1153.19 1549.97C1161.43 1560.41 1176.89 1561.18 1186.03 1551.52C1195.01 1542.13 1205.27 1532.89 1214.57 1523.99C1227.69 1511.46 1238.95 1499.5 1242.52 1489.87C1243.66 1486.8 1244.2 1483.43 1244.69 1480.17C1245.35 1475.73 1247.29 1471.63 1249.94 1468.01C1250.96 1466.63 1251.98 1465.23 1252.99 1463.83C1254.63 1461.56 1256.44 1459.4 1258.31 1457.3C1262.79 1452.29 1267.95 1445.71 1272.23 1438.16C1275.94 1431.63 1279.16 1424.81 1283.04 1418.37C1283.96 1416.86 1284.86 1415.35 1285.75 1413.85C1291.76 1403.69 1297.38 1393.6 1302.78 1383.26C1304.55 1379.88 1306.3 1376.45 1308.03 1372.98C1308.05 1372.95 1308.07 1372.92 1308.08 1372.88C1311.56 1365.93 1314.92 1358.89 1318.14 1351.87C1319.51 1348.86 1320.87 1345.83 1322.2 1342.79C1325.57 1335.1 1328.81 1327.32 1331.88 1319.55C1333.5 1315.45 1335.11 1311.23 1336.65 1307.08C1339.17 1300.32 1341.6 1293.44 1343.92 1286.52C1347.68 1275.28 1351.07 1264.22 1354.25 1252.82C1354.77 1250.96 1355.46 1249.22 1356.2 1247.98C1356.93 1246.75 1357.66 1246.11 1358.23 1246.24C1358.81 1246.36 1359.21 1247.25 1359.37 1248.69C1359.52 1250.13 1359.4 1252.02 1359.07 1253.93C1356.99 1265.67 1354.67 1277.13 1351.94 1288.83C1350.27 1296.03 1348.48 1303.21 1346.59 1310.29C1345.42 1314.63 1344.19 1319.05 1342.94 1323.36C1340.57 1331.53 1338.01 1339.75 1335.3 1347.89C1334.23 1351.1 1333.13 1354.31 1332.01 1357.5C1329.4 1364.98 1326.61 1372.49 1323.69 1379.94C1323.67 1379.99 1323.65 1380.03 1323.63 1380.08C1322.19 1383.75 1320.72 1387.4 1319.24 1391C1314.66 1402.09 1309.82 1412.96 1304.54 1423.96C1301.83 1429.65 1298.92 1435.49 1295.92 1441.3C1294.25 1444.53 1292.56 1447.75 1290.87 1450.88C1289.95 1452.6 1289.01 1454.33 1288.05 1456.07C1266.15 1495.99 1240.2 1533.54 1210.28 1568.47C1199.04 1581.6 1199.07 1601.34 1211.9 1612.91C1234.09 1632.91 1255.63 1648.36 1273.8 1657.67C1346.52 1697.36 1367.75 1703.56 1446.94 1714.92C1470.87 1717.75 1492.92 1703.82 1506.94 1684.22C1572.87 1591.97 1710.82 1488.07 1809.14 1464.38C1823.24 1459.78 1835.8 1456.18 1846.85 1453.19C1880.71 1445.45 1909.96 1422.41 1920.16 1389.2C1921.42 1385.09 1922.68 1380.88 1923.96 1376.57C1932.98 1333.84 1906.56 1294.23 1867.3 1275.11C1858.49 1270.83 1850.21 1266.56 1842.36 1262.37C1763.35 1225.26 1624.96 1098.61 1565.14 968.458C1556.93 955.055 1549.37 939.53 1542.52 922.366ZM1592.74 851.706C1578.54 848.156 1566.32 861.321 1570.81 875.25C1617.15 1032.82 1761.36 1194.84 1929.31 1265.38C1932.16 1266.64 1935.31 1264.43 1935.06 1261.33C1932.53 1229.82 1925.05 1193.55 1912.64 1136.04C1912.21 1134.41 1911.76 1132.76 1911.3 1131.1C1868.23 1006.27 1843.1 997.569 1743.75 919.949C1700.94 887.678 1646.83 865.23 1592.74 851.706Z" fill="#FF054C" fill-opacity="0.66" style="mix-blend-mode:multiply"/>
</g>
<defs>
<clipPath id="clip0_1054_900">
<rect width="2848" height="4544" fill="white"/>
</clipPath>
</defs>
</svg>
