<svg width="1920" height="1080" viewBox="0 0 1920 1080" fill="none" xmlns="http://www.w3.org/2000/svg">
<path fill-rule="evenodd" clip-rule="evenodd" d="M2067.54 402.376C2114.04 443.532 2134.53 464.813 2160 539.125C2181.16 607.77 2203.05 640.018 2211.71 680.697C2213.19 687.65 2213.38 694.808 2213.72 701.909C2215.43 738.718 2230.13 756.781 2201.83 967.818C2176.86 1090.92 2127.09 1175.99 2082.83 1236.53C2043.99 1288.89 2007.64 1323.92 1976.21 1351.02C1910.53 1413.4 1735.39 1493.54 1589.48 1503.1C1459.98 1527.02 1212.1 1455.15 1106.15 1363.19C1091.9 1352.66 1079.66 1342.97 1069.02 1334.34C1042.91 1311.42 1004.64 1306.45 972.692 1320.14C950.271 1329.74 919.357 1341.9 875.364 1357.73C790.73 1381.95 721.489 1378.3 669.413 1370.09C624.179 1362.64 590.547 1351.1 563.447 1340.12C503.026 1318.9 398.541 1232.71 345.85 1144.73C303.372 1089.66 274.163 975.375 272.13 881.251C271.952 873.031 263.468 867.326 256.311 871.373C206.794 898.075 181.762 908.712 111.18 902.513C47.5579 894.914 12.9469 904.358 -23.5861 897.866C-30.5779 896.623 -37.2087 893.955 -43.854 891.451C-74.4236 879.933 -95.1093 883.44 -259.512 788.672C-353.585 725.724 -407.51 654.883 -442.751 597.064C-473.05 546.587 -489.721 504.105 -501.494 468.475C-530.921 391.852 -534.84 217.956 -492.489 93.1196C-467.709 -23.2917 -320.989 -204.569 -207.663 -261.249C-193.946 -269.517 -181.635 -276.424 -170.77 -282.375C-73.3578 -330.96 -66.5616 -317.078 18.5983 -325.335C102.816 -328.66 174.751 -358.437 279.549 -325.676C380.588 -287.239 389.037 -267.102 488.141 -200.116C561.135 -146.904 612.078 -70.3516 641.54 -16.5854C651.957 1.97701 660.299 17.7728 667.58 29.4965C694.831 76.3063 679.509 88.273 701.334 159.364C720.622 231.932 719.346 279.605 707.624 343.639C705.463 375.69 729.882 406.286 761.994 407.163C796.928 408.116 829.02 413.123 854.068 418.353C870.302 421.569 883.862 424.568 894.512 426.05C926.718 431.479 962.14 428.084 981.963 402.127C984.955 398.209 987.901 394.433 990.786 390.805C1005.31 372.165 1017.99 356.912 1027.11 344.662C1064.21 297.677 1080.33 305.294 1144.49 252.996C1211.13 202.771 1260.1 183.226 1330.53 166.435C1400.48 141.042 1621.58 137.36 1700.17 159.827C1781.11 171.761 1859.57 225.919 1901.92 259.095C1915.58 269.38 1925.4 278.235 1932.74 285.505C1935.84 288.581 1936.68 290.766 1935.95 291.702L1935.95 291.704C1935.04 292.872 1931.73 292.119 1927.22 288.953C1905.51 273.683 1871.03 252.802 1827.23 236.426C1745.16 209.556 1740.42 192.186 1624.69 176.369C1508.63 168.515 1439.27 181.936 1310.43 219.338C1185.99 267.89 1166.48 301.072 1038.32 427.617C1036.7 429.403 1035.06 431.213 1033.42 433.047C1015.16 456.487 1024.13 489.668 1047.5 508.009C1066.86 523.197 1082.74 540.362 1099.8 561.786C1136.57 598.521 1206.6 734.475 1219.05 789.848C1238.79 843.63 1226.62 909.701 1218.58 945.961C1216.25 957.58 1213.52 966.353 1211 973.087C1209.92 975.928 1208.55 977.067 1207.46 976.856C1207.46 976.856 1207.46 976.856 1207.46 976.856C1207.46 976.856 1207.45 976.856 1207.45 976.856C1206.09 976.588 1205.17 974.245 1205.68 970.487C1208.11 952.364 1209.65 924.57 1204.79 892.696C1193.39 834.381 1205.31 825.872 1178.03 750.563C1145.76 677.602 1114.38 641.498 1053.49 573.595C1013.05 535.99 950.031 555.136 938.418 609.127C927.578 659.521 929.143 713.975 923.763 801.895C918.813 912.246 957.16 1034.62 1008.32 1130.01C1035.06 1179.85 1098.42 1184.65 1129.82 1137.6C1153.97 1099.3 1181.64 1043.84 1200.09 993.144C1209.17 967.587 1213.12 974.266 1209.1 1001.82C1202.61 1042.25 1187.21 1072.32 1183.58 1093.93C1175.45 1137.1 1169.39 1157.65 1129.59 1195.81C1124.99 1199.96 1120.79 1203.99 1116.92 1207.91C1097.99 1227.07 1099.32 1258.8 1120.92 1274.9C1131.26 1283.86 1142.1 1292.65 1153.9 1301.53C1238.37 1366.17 1364.22 1421.28 1504.08 1430.41C1664.23 1445.06 1859.01 1365.5 1982.24 1240.47C1997.07 1226.1 2011.96 1210.2 2026.45 1192.87C2142.13 1065.85 2184.51 848.518 2172.28 744.602C2161.29 626.727 2152.05 595.352 2096.84 495.144C2063.51 438.154 2008.59 365.765 1953.16 310.752C1925.08 283.305 1935.28 284.14 1967.59 307.908C2014.59 343.502 2043.91 382.302 2067.54 402.376ZM581.67 9.89931C502.196 -138.192 458.38 -133.398 317.392 -201.854C170.447 -270.553 -45.968 -256.331 -132.857 -204.84C-143.642 -199.463 -154.448 -193.616 -165.654 -187.02C-246.769 -140.089 -333.729 -56.6106 -389.35 53.4511C-456.518 178.449 -456.193 363.422 -398.025 506.276C-391.557 523.286 -383.874 540.872 -374.876 558.651C-312.296 696.583 -150.395 807.024 -61.3331 833.693C38.6168 866.297 67.8039 869.809 168.825 858.246C188.824 855.433 211.184 851.258 234.56 845.964C258.001 840.655 273.937 820.188 279.655 796.844C281.66 784.528 283.755 773.729 285.676 764.265C305.749 681.788 318.359 685.083 356.94 630.85C397.882 579.77 414.831 520.443 487.639 475.049C523.902 455.396 546.411 446.881 570.412 440.384C615.747 428.11 650.952 393.011 657.29 346.473C658.934 334.401 660.577 321.727 662.277 308.324C666.529 189.809 640.686 164.185 584.312 15.8023C583.446 13.8521 582.566 11.8847 581.67 9.89931ZM885.958 572.516C900.48 533.396 882.458 488.191 843.333 473.684C841.765 473.199 840.18 472.713 838.577 472.226C781.605 459.138 746.462 458.266 714.968 465.696C683.87 473.033 661.975 499.411 649.352 528.765C627.36 579.909 603.13 626.968 584.232 651.576C547.384 715.378 473.508 759.776 431.278 782.637C417.972 790.186 407.144 794.999 398.484 798.304C394.824 799.693 392.618 799.42 391.98 798.293L391.978 798.29C391.184 796.88 392.802 794.155 396.936 791.511C416.872 778.767 445.671 757.189 473.429 726.068C522.187 666.592 539.655 670.246 591.478 580.291C597.466 568.019 602.846 556.297 607.71 544.923C614.088 530.007 598.609 515.964 583.769 522.516C471.136 574.098 370.514 706.191 357.308 782.746C355.089 791.72 353.136 800.941 351.423 810.768C351.309 811.397 351.92 811.912 352.521 811.695C358.432 809.56 364.264 807.378 369.995 805.152C402.573 792.208 398.969 801.194 368.407 820.078C356.072 827.463 347.082 839.724 346.113 854.068C341.864 917.005 351.147 990.543 380.325 1061C419.544 1162.69 528.129 1253.85 640.101 1291.64C653.223 1296.41 667.297 1300.77 682.146 1304.46C747.901 1323.82 825.537 1318.3 890.595 1302.61C950.745 1288.11 972.132 1215.02 942.039 1160.95C901.187 1076.57 845.642 1013.78 833.547 893.542C828.751 774.432 842.504 756.754 869.268 626.738C873.776 608.184 879.444 590.064 885.958 572.516Z" fill="#FF054C" fill-opacity="0.66"/>
</svg>
