<svg width="1920" height="1080" viewBox="0 0 1920 1080" fill="none" xmlns="http://www.w3.org/2000/svg">
<path d="M1511.52 -426.348C1570.24 -446.549 1598.85 -453.9 1676.07 -439.458C1746.23 -424.064 1785.08 -427.232 1824.74 -414.734C1831.53 -412.598 1837.85 -409.242 1844.19 -406.032C1877.07 -389.394 1900.03 -393.294 2069.76 -264.719C2164.59 -182.352 2214.12 -97.1392 2245.01 -28.8018C2271.44 30.7895 2284.03 79.6776 2292.13 120.382C2314.07 208.267 2297.55 400.163 2234 531.847C2191.04 656.336 2006.4 836.663 1874.18 883.579C1858 890.796 1843.54 896.679 1830.79 901.681C1797.98 913.117 1774.8 943.978 1770.98 978.519C1768.3 1002.76 1763.65 1035.66 1755.76 1081.74C1735.15 1167.32 1697.88 1225.79 1665.08 1267.06C1636.31 1302.76 1609.71 1326.35 1586.8 1344.52C1538.58 1386.66 1412.1 1435.14 1309.58 1437.66C1240.73 1447.5 1126.89 1416.63 1043.97 1372.04C1036.73 1368.15 1027.59 1372.72 1027.58 1380.95C1026.43 1437.19 1023.36 1464.22 983.201 1522.59C945.251 1574.22 936.423 1608.99 912.779 1637.59C908.254 1643.06 902.666 1647.52 897.214 1652.07C872.133 1673 864.997 1692.73 701.547 1789.13C600.429 1840 512.216 1852.04 444.54 1854.23C385.687 1855.73 340.504 1849.32 303.697 1842.02C222.519 1829.89 69.248 1747.65 -18.5364 1649.3C-107.643 1570.4 -193.142 1353.42 -186.653 1226.88C-187.092 1210.87 -187.04 1196.75 -186.867 1184.37C-181.171 1075.66 -165.743 1076.58 -130.985 998.402C-92.3981 923.471 -82.8818 846.201 -2.75323 771.132C80.4641 702.13 102.15 704.694 209.26 651.438C291.523 614.122 383.237 607.491 444.54 608.333C465.825 608.41 483.681 608.929 497.47 608.367C551.63 607.707 554.499 626.935 627.118 642.956C699.773 661.913 740.634 686.504 790.589 728.244C817.418 745.912 856.073 739.73 872.653 712.214C890.688 682.282 910.852 656.818 927.741 637.595C938.536 625.051 947.823 614.727 954.359 606.188C974.947 580.833 989.439 548.333 976.612 518.296C974.676 513.763 972.841 509.34 971.105 505.042C962.036 483.22 955.006 464.673 948.838 450.702C926.22 395.272 940.789 384.994 926.875 303.399C915.988 220.664 923.096 168.421 943.172 98.8574C955.526 25.475 1061.22 -168.764 1119.49 -226.095C1169.74 -290.655 1255.51 -332.265 1305.25 -352.785C1320.92 -359.603 1333.47 -363.789 1343.41 -366.601C1347.61 -367.78 1349.93 -367.434 1350.39 -366.342L1350.39 -366.34C1350.96 -364.973 1348.67 -362.456 1343.69 -360.096C1319.71 -348.718 1284.56 -329.001 1248.73 -298.943C1184.92 -240.753 1167.47 -245.181 1096.71 -152.26C1032.7 -55.1183 1010.22 11.8538 979.315 142.403C960.275 274.621 979.545 307.943 1026.55 481.806C1027.31 484.098 1028.08 486.411 1028.87 488.744C1040.27 516.179 1073.57 524.718 1101.04 513.408C1123.79 504.042 1146.55 498.677 1173.6 494.383C1223.68 480.471 1376.49 486.493 1430.82 502.931C1487.34 512.243 1538.85 555.371 1566.45 580.23C1575.41 587.981 1581.71 594.674 1586.32 600.189C1588.27 602.523 1588.58 604.282 1587.86 605.127L1587.86 605.129C1586.95 606.182 1584.46 605.829 1581.44 603.54C1566.86 592.498 1543.44 577.463 1513.3 565.992C1456.93 547.196 1455.4 532.635 1376.43 519.275C1297.03 511.424 1250.15 520.959 1161.07 540.498C1108.42 557.173 1094.05 621.45 1135.31 658.149C1173.83 692.404 1221.99 717.863 1295.86 765.849C1389.46 824.508 1514.85 851.411 1623.07 853.864C1679.61 855.145 1714.99 802.364 1689.51 751.869C1668.07 711.986 1633.44 660.584 1598.41 619.559C1580.63 599.072 1588.4 598.92 1610.39 615.994C1642.38 641.555 1660.96 669.768 1677.99 683.568C1711.55 711.907 1726.45 727.302 1740.06 780.739C1741.4 786.784 1742.84 792.424 1744.35 797.722C1751.7 823.638 1779.97 838.107 1804.62 827.236C1817.52 822.654 1830.5 817.549 1844.04 811.656C1941.9 769.975 2051.85 687.595 2128.68 570.369C2220.31 438.213 2247.01 229.511 2198.89 60.6845C2193.68 40.6919 2187.19 19.9087 2179.24 -1.24222C2125.67 -164.477 1957.4 -308.408 1860.94 -348.94C1752.94 -397.436 1721.08 -404.847 1606.69 -406.159C1540.67 -405.219 1450.62 -393.075 1375.44 -371.929C1337.72 -361.014 1343.48 -369.484 1380.07 -385.889C1434.2 -409.261 1482.41 -415.675 1511.52 -426.348ZM438.101 673.481C270.075 669.706 252.665 710.201 123.647 799.185C-8.51691 893.232 -102.732 1088.58 -100.716 1189.56C-101.349 1201.6 -101.582 1213.88 -101.361 1226.88C-100.47 1320.59 -70.6505 1437.39 -2.26007 1540C73.4422 1660.02 234.582 1750.85 387.557 1770.59C405.546 1773.34 424.636 1775.31 444.54 1776.24C595.404 1789.71 771.262 1703.21 838.339 1638.83C915.942 1567.9 933.375 1544.23 973.068 1450.62C980.47 1431.83 987.85 1410.31 994.755 1387.36C1001.68 1364.35 991.717 1340.4 974.217 1323.92C964.487 1316.11 956.12 1308.97 948.83 1302.64C886.938 1244.54 896.017 1235.19 867.821 1174.9C843.532 1114.11 800.248 1070.14 796.603 984.42C797.36 943.181 801.037 919.397 807.203 895.309C818.85 849.809 805.644 801.883 768.264 773.446C758.567 766.069 748.347 758.397 737.519 750.315C636.471 688.241 601.442 698.112 444.54 674.09C442.416 673.883 440.27 673.68 438.101 673.481ZM1077.61 685.773C1050.72 653.865 1002.5 647.285 970.607 674.19C969.413 675.316 968.21 676.456 966.997 677.611C927.545 720.747 909.476 750.902 900.43 781.971C891.498 812.649 903.671 844.696 923 870.139C956.679 914.469 985.701 958.735 997.808 987.302C1035.19 1050.79 1037.44 1136.96 1036.53 1184.97C1036.55 1200.27 1035.41 1212.06 1034.02 1221.23C1033.42 1225.1 1032.1 1226.88 1030.8 1226.88H1030.8C1029.18 1226.88 1027.61 1224.13 1027.34 1219.23C1026.07 1195.6 1021.48 1159.91 1008.06 1120.42C980.318 1048.69 992.101 1035.29 939.339 945.885C931.607 934.63 924.056 924.174 916.553 914.339C906.714 901.441 886.868 907.996 885.26 924.138C874.677 1047.57 940.075 1200.2 1000.19 1249.4C1006.91 1255.75 1013.98 1261.99 1021.69 1268.32C1022.18 1268.73 1022.93 1268.45 1023.03 1267.82C1024.09 1261.63 1025.06 1255.48 1025.94 1249.39C1030.73 1214.66 1036.77 1222.23 1038.15 1258.13C1038.5 1272.5 1044.75 1286.36 1056.75 1294.27C1109.43 1328.97 1178.01 1357.11 1253.69 1366.42C1361.52 1382.37 1494.33 1332.77 1582.37 1253.93C1592.99 1244.87 1603.71 1234.76 1614.23 1223.66C1663.47 1175.97 1696.9 1105.68 1715.3 1041.34C1732.3 981.848 1679.22 927.232 1617.35 926.793C1523.79 920.785 1441.78 938.198 1331.19 889.503C1225.16 835.011 1216.55 814.334 1116.58 727.004C1102.66 713.942 1089.68 700.085 1077.61 685.773Z" fill="#FF054C" fill-opacity="0.66"/>
</svg>
