<svg width="1920" height="1080" viewBox="0 0 1920 1080" fill="none" xmlns="http://www.w3.org/2000/svg">
<path fill-rule="evenodd" clip-rule="evenodd" d="M2046.26 -130.338C2105.64 -112.148 2133.11 -101.269 2187.07 -44.1852C2234.77 9.52355 2268.05 29.8038 2292.79 63.2379C2297.02 68.9529 2300.16 75.3869 2303.4 81.7132C2320.22 114.504 2341.08 124.851 2402.76 328.649C2431.03 451.034 2420.99 549.083 2405.79 622.518C2392.13 686.264 2373.56 733.207 2356.18 770.897C2322.25 854.882 2196.05 1000.38 2067.22 1069.53C1959.26 1144.96 1703.88 1182.25 1569.35 1142.45C1552.02 1138.77 1536.87 1135.03 1523.62 1131.58C1490.35 1121.53 1453.46 1132.87 1430.05 1158.56C1413.63 1176.59 1390.53 1200.47 1357.05 1233.1C1290.05 1290.21 1225.53 1315.58 1174.73 1329.68C1130.47 1341.64 1095.08 1345.07 1065.87 1346.31C1002.08 1352.03 871.278 1316.87 786.872 1258.63C725.393 1226.11 651.46 1134.2 610.612 1049.38C607.044 1041.97 596.959 1040.29 592.122 1046.94C558.118 1091.76 539.743 1111.81 472.936 1135.41C411.883 1154.86 384.295 1177.79 348.356 1187.02C341.477 1188.78 334.337 1189.1 327.252 1189.58C294.657 1191.76 277.283 1203.52 88.391 1185.39C-23.3083 1167.07 -101.738 1124.94 -157.768 1086.92C-206.257 1053.53 -239.031 1021.77 -264.508 994.223C-323.038 936.679 -398.653 780.033 -411.83 648.869C-437.509 532.653 -379.081 306.878 -299.423 208.339C-290.364 195.13 -282.022 183.744 -274.598 173.825C-206.07 89.2469 -194.133 99.0655 -120.048 56.2665C-44.7765 18.3474 8.35658 -38.5571 117.31 -52.1604C225.195 -59.0402 241.227 -44.2141 359.179 -24.3084C447.66 -6.12112 525.742 42.4446 574.832 79.1725C592.004 91.7506 606.141 102.67 617.625 110.324C661.82 141.637 652.834 158.876 702.152 214.535C749.773 272.591 768.364 316.508 784.225 379.643C795.538 409.71 830.439 427.439 860.029 414.932C892.218 401.326 923.5 392.587 948.464 386.969C964.572 383.17 978.156 380.281 988.462 377.218C1020.02 368.815 1050.86 351.049 1058.14 319.211C1059.24 314.406 1060.36 309.749 1061.48 305.252C1066.98 282.268 1072.2 263.133 1075.42 248.206C1089.72 190.071 1107.55 190.325 1144.27 116.145C1184.12 42.8226 1220.59 4.74586 1277.73 -39.7161C1330.87 -91.808 1530.58 -186.767 1611.42 -198.881C1690.02 -221.553 1783.87 -204.771 1836.17 -192.124C1852.86 -188.421 1865.46 -184.431 1875.16 -180.857C1879.25 -179.341 1880.92 -177.7 1880.65 -176.548L1880.65 -176.545C1880.3 -175.106 1876.97 -174.416 1871.56 -175.431C1845.47 -180.332 1805.44 -185.054 1758.79 -181.808C1672.96 -172.26 1661.45 -186.104 1549.58 -152.554C1440.69 -111.614 1383.12 -70.6627 1281.36 16.7583C1188.21 112.507 1184.2 150.791 1119.99 319.061C1119.26 321.359 1118.52 323.683 1117.79 326.034C1110.88 354.931 1132.79 381.415 1161.66 388.423C1185.57 394.226 1207.14 403.269 1231.54 415.7C1280.23 433.897 1400.29 528.621 1434.56 573.859C1474.81 614.63 1491.11 679.803 1498.82 716.137C1501.51 727.677 1502.66 736.791 1503.15 743.966C1503.36 746.996 1502.57 748.603 1501.5 748.863C1501.49 748.864 1501.49 748.864 1501.49 748.864C1501.49 748.864 1501.49 748.865 1501.49 748.865C1500.14 749.185 1498.33 747.433 1497.23 743.805C1491.94 726.303 1481.83 700.367 1464.2 673.37C1429.66 625.021 1436.98 612.34 1380.96 555.098C1321.36 502.064 1277.83 482.21 1194.29 445.633C1141.9 428.164 1092.47 471.7 1104.27 525.65C1115.29 576.006 1139.27 624.918 1170.81 707.166C1212.02 809.651 1297.62 905.143 1383.71 970.758C1428.7 1005.05 1488.35 983.157 1497.43 927.327C1503.54 882.462 1505.75 820.523 1501.54 766.739C1499.21 739.718 1505.58 744.159 1513.33 770.903C1524.18 810.39 1522.61 844.134 1528.27 865.309C1538.76 907.966 1541.75 929.177 1521.34 980.406C1518.87 986.082 1516.72 991.491 1514.82 996.66C1505.53 1021.95 1519.89 1050.28 1546.22 1055.98C1559.34 1059.85 1572.85 1063.36 1587.27 1066.55C1690.93 1090.38 1828.3 1088.4 1959.38 1038.76C2111.2 985.742 2255.52 832.634 2315.87 667.782C2323.41 648.551 2330.38 627.919 2336.39 606.139C2389.04 442.603 2337.57 227.245 2283.38 137.738C2224.54 35.0084 2203.13 10.2819 2111.37 -58.048C2057.42 -96.1053 1977.44 -139.234 1904.2 -166.336C1867.27 -179.685 1876.91 -183.153 1916.15 -174.904C1973.68 -161.982 2016.44 -138.82 2046.26 -130.338ZM531.316 128.082C397.627 26.2268 359.735 48.7444 203.054 44.8549C40.8521 43.2114 -150.222 145.82 -207.969 228.684C-215.556 238.046 -222.969 247.845 -230.434 258.491C-284.816 334.812 -329.374 446.818 -334.396 570.033C-343.738 711.627 -266.805 879.842 -154.676 985.758C-141.742 998.559 -127.463 1011.38 -111.908 1023.83C2.19628 1123.44 195.305 1156.88 287.413 1144.25C391.889 1132.51 419.908 1123.62 507.059 1071.24C524.096 1060.39 542.717 1047.33 561.799 1032.83C580.933 1018.28 586.957 993.051 582.489 969.436C579.212 957.396 576.644 946.7 574.471 937.29C558.568 853.909 571.41 851.683 584.054 786.339C600.154 722.886 590.999 661.869 638.456 590.389C663.317 557.477 680.276 540.402 699.428 524.544C735.603 494.59 753.102 448.059 739.589 403.078C736.084 391.409 732.328 379.194 728.322 366.291C683.089 256.664 648.952 244.051 536.166 132.36C534.57 130.944 532.954 129.518 531.316 128.082ZM1041.36 514.064C1038.37 472.444 1003.24 438.768 961.619 441.775C959.991 441.983 958.347 442.197 956.686 442.419C899.412 454.112 867.065 467.878 841.48 487.689C816.216 507.251 807.218 540.331 807.892 572.276C809.066 627.936 806.511 680.805 799.507 711.03C792.405 784.366 743.563 855.382 714.601 893.686C705.617 906.069 697.757 914.935 691.245 921.532C688.489 924.313 686.368 924.978 685.32 924.216L685.318 924.214C684.011 923.26 684.354 920.11 687.021 915.991C699.886 896.132 717.156 864.561 729.526 824.736C749.26 750.404 766.671 746.492 776.567 643.149C776.932 629.499 776.972 616.602 776.686 604.235C776.311 588.018 756.405 581.65 745.613 593.761C664.475 687.374 627.624 849.285 647.323 924.431C649.021 933.518 651.065 942.72 653.577 952.374C653.734 952.994 654.503 953.209 654.96 952.763C659.456 948.37 663.86 943.968 668.153 939.568C692.441 914.29 692.883 923.961 672.891 953.81C664.725 965.642 661.623 980.527 666.684 993.982C688.893 1053.02 727.81 1116.11 783.556 1168.14C861.386 1244.45 997.98 1282.42 1115.55 1270.42C1129.47 1269.33 1144.08 1267.47 1159.12 1264.67C1226.99 1255.05 1295.36 1217.86 1348.08 1176.63C1396.81 1138.51 1385.99 1063.12 1336.2 1026.38C1264.06 966.512 1187.49 932.375 1126.67 827.956C1072.95 721.537 1078.15 699.75 1048.64 570.329C1045.05 551.575 1042.7 532.734 1041.36 514.064Z" fill="#FF054C" fill-opacity="0.66"/>
</svg>
